<?xml version="1.0" encoding="UTF-8"?>
<svg xmlns="http://www.w3.org/2000/svg" width="128" height="128" viewBox="0 0 128 128" aria-hidden="true">
  <defs>
    <!-- Palette as CSS classes -->
    <style>
      .dk{fill:#2b2d42}.md{fill:#8d99ae}.lt{fill:#edf2f4}.acc{fill:#ef233c}
      .sea{fill:#1b6ca8}.lamp{fill:#f7b32b}
    </style>

    <!-- FRAME: idle -->
    <symbol id="frame-idle" viewBox="0 0 128 128" shape-rendering="crispEdges">
      <!-- sea -->
      <rect class="sea" x="0" y="96" width="128" height="32"/>
      <!-- platform deck -->
      <rect class="md" x="12" y="64" width="104" height="10"/>
      <rect class="dk" x="12" y="74" width="104" height="2"/>
      <!-- legs -->
      <rect class="dk" x="22" y="76" width="8" height="20"/>
      <rect class="dk" x="98" y="76" width="8" height="20"/>
      <!-- derrick -->
      <rect class="dk" x="58" y="28" width="12" height="36"/>
      <rect class="md" x="56" y="26" width="16" height="2"/>
      <rect class="md" x="56" y="64" width="16" height="2"/>
      <!-- beacon -->
      <rect class="acc" x="62" y="20" width="4" height="4"/>
      <rect class="lamp" x="62" y="18" width="4" height="2"/>
      <!-- (Note) Drill string & bit will be overlaid live in index.html -->
    </symbol>

    <!-- FRAME: gentle wave -->
    <symbol id="frame-wave" viewBox="0 0 128 128" shape-rendering="crispEdges">
      <use href="#frame-idle"/>
      <!-- simple crests -->
      <rect class="lt" x="10" y="100" width="8" height="2"/>
      <rect class="lt" x="30" y="104" width="10" height="2"/>
      <rect class="lt" x="68" y="100" width="12" height="2"/>
      <rect class="lt" x="96" y="104" width="8" height="2"/>
    </symbol>

    <!-- FRAME: drill down 1 (visual is same base; depth is controlled by overlay in JS) -->
    <symbol id="frame-drill1" viewBox="0 0 128 128" shape-rendering="crispEdges">
      <use href="#frame-idle"/>
    </symbol>

    <!-- FRAME: drill down 2 -->
    <symbol id="frame-drill2" viewBox="0 0 128 128" shape-rendering="crispEdges">
      <use href="#frame-idle"/>
    </symbol>
  </defs>

  <!-- Optional preview if you open the file directly -->
  <use href="#frame-idle" x="0" y="0" width="128" height="128"/>
</svg>
