<svg xmlns="http://www.w3.org/2000/svg" viewBox="0 0 320 180" shape-rendering="crispEdges">
  <rect width="320" height="180" fill="#0B1E3A"/>
  <rect x="0" y="120" width="320" height="60" fill="#072443"/>
  <rect x="20" y="100" width="60" height="20" fill="#14345C"/>
  <rect x="40" y="80" width="20" height="20" fill="#1F4777"/>
  <rect x="120" y="90" width="140" height="40" fill="#0E2B50"/>
  <rect x="150" y="50" width="20" height="60" fill="#FF6A00"/>
  <rect x="150" y="30" width="20" height="20" fill="#8FD3FF"/>
  <rect x="180" y="60" width="16" height="35" fill="#1B3E6B"/>
  <rect x="206" y="60" width="16" height="35" fill="#1B3E6B"/>
  <rect x="232" y="60" width="16" height="35" fill="#1B3E6B"/>
  <rect x="120" y="110" width="20" height="35" fill="#17395F"/>
  <rect x="140" y="120" width="150" height="25" fill="#1F4777"/>
  <rect x="40" y="120" width="60" height="25" fill="#1F4777"/>
  <rect x="68" y="70" width="6" height="10" fill="#FF6A00"/>
  <rect x="60" y="110" width="20" height="10" fill="#0E2B50"/>
  <rect x="20" y="120" width="10" height="40" fill="#0B1E3A"/>
  <rect x="290" y="120" width="10" height="40" fill="#0B1E3A"/>
  <rect x="0" y="115" width="320" height="5" fill="#8FD3FF"/>
  <rect x="150" y="20" width="20" height="10" fill="#F4F7FA"/>
  <rect x="144" y="15" width="32" height="5" fill="#8FD3FF"/>
</svg>
